<svg width="47" height="37" viewBox="0 0 47 37" fill="none" xmlns="http://www.w3.org/2000/svg">
<path d="M0 16.8893H10.3168C10.1405 25.7121 8.00787 26.7136 5.32942 26.9995L4.29653 27.1497V36.8513L5.4871 36.7764C8.98469 36.5455 12.8516 35.8057 15.4314 32.0686C17.6929 28.7925 18.6899 23.4404 18.6899 15.2244V0H0V16.8893Z" fill="#EDCE9C"/>
<path d="M27.9814 0V16.8893H38.1606C37.9842 25.7121 35.9206 26.7136 33.2421 26.9995L32.278 27.1497V36.8513L33.3998 36.7764C36.8974 36.5455 40.7989 35.8057 43.3787 32.0686C45.64 28.7925 46.6714 23.4404 46.6714 15.2244V0H27.9814Z" fill="#EDCE9C"/>
</svg>
