<svg width="24" height="24" viewBox="0 0 24 24" fill="none" xmlns="http://www.w3.org/2000/svg">
<g clip-path="url(#clip0)">
<path d="M2.06152 8.91602H21.9384V23.6597H2.06152V8.91602Z" fill="#EDCE9C"/>
<path d="M2.06152 8.91602H21.9384V11.8049H2.06152V8.91602Z" fill="#EDCE9C"/>
<path d="M0.370361 5.21289H23.6296V10.1758H0.370361V5.21289Z" fill="#EDCE9C"/>
<path d="M11.9999 6.85933C11.8487 7.03511 11.7005 7.21327 11.5559 7.39363C11.017 8.06416 10.5237 8.76693 10.0778 9.49642C8.66189 11.8105 7.72164 14.396 7.32503 17.1017C6.72902 16.3111 6.17878 15.4556 5.68403 14.541C4.81336 15.109 3.96247 15.7585 3.14307 16.4892C3.56384 13.6191 4.49091 10.8604 5.86769 8.33736C6.60304 6.98915 7.4673 5.70814 8.4515 4.51355C8.56521 4.37476 8.68075 4.23798 8.79775 4.10156C9.29507 4.52985 9.79184 4.95795 10.2892 5.38605C10.7973 5.82368 11.3056 6.26112 11.8137 6.69929C11.876 6.75203 11.9377 6.80586 11.9999 6.85933Z" fill="#EDCE9C"/>
<path d="M20.8572 16.4892C20.0378 15.7585 19.1869 15.109 18.3163 14.541C17.8215 15.4556 17.2713 16.3111 16.6753 17.1017C16.2786 14.396 15.3384 11.8105 13.9224 9.49642C13.4766 8.76693 12.9827 8.06416 12.4444 7.39363C12.2992 7.21327 12.1511 7.03511 12 6.85933C12.0621 6.80586 12.124 6.75257 12.186 6.69929C12.6947 6.26112 13.203 5.82313 13.7111 5.38605C14.2084 4.9574 14.7058 4.52985 15.2025 4.10156C15.3195 4.23743 15.4351 4.37476 15.5488 4.513C16.533 5.70759 17.3972 6.9886 18.1331 8.33736C19.5094 10.8604 20.4364 13.6191 20.8572 16.4892Z" fill="#EDCE9C"/>
<path d="M18.1331 8.33801L13.9224 9.49707C13.4766 8.76758 12.9827 8.06482 12.4444 7.39429L12.186 6.69995L12 6.19916L13.7111 5.38672L15.5488 4.51367C16.533 5.70825 17.3972 6.98926 18.1331 8.33801Z" fill="#EDCE9C"/>
<path d="M11.9999 6.19861L11.8137 6.6994L11.5558 7.39374C11.017 8.06427 10.5237 8.76703 10.0778 9.49652L5.86768 8.33746C6.60303 6.98926 7.46729 5.70825 8.45148 4.51367L10.2891 5.38617L11.9999 6.19861Z" fill="#EDCE9C"/>
<path d="M18.7198 0.576884L12 3.76823L13.2907 7.23973L20.463 5.26548C21.4012 5.0073 21.9165 4.00059 21.5773 3.08873L20.9854 1.49699C20.6463 0.584941 19.5985 0.159587 18.7198 0.576884Z" fill="#EDCE9C"/>
<path d="M5.28043 0.576884L12 3.76823L10.7093 7.23973L3.53708 5.26548C2.59903 5.0073 2.08359 4.00059 2.4227 3.08873L3.01468 1.49699C3.35379 0.584941 4.40152 0.159587 5.28043 0.576884Z" fill="#EDCE9C"/>
<path d="M13.0535 2.57617H10.9463C10.3695 2.57617 9.90186 3.04364 9.90186 3.62042V6.68213C9.90186 7.25891 10.3695 7.72656 10.9463 7.72656H13.0535C13.6304 7.72656 14.0979 7.25891 14.0979 6.68213V3.62042C14.0979 3.04364 13.6302 2.57617 13.0535 2.57617Z" fill="#EDCE9C"/>
<path d="M10.1482 10.1758H13.8517V23.6601H10.1482V10.1758Z" fill="#EDCE9C"/>
<path d="M10.1482 10.1758H13.8517V11.8052H10.1482V10.1758Z" fill="#EDCE9C"/>
<path d="M23.6297 4.84261H21.6756C21.7323 4.76296 21.7838 4.67928 21.8288 4.59157C22.0874 4.08657 22.1223 3.49184 21.9248 2.95973L21.3326 1.36818C21.1352 0.83662 20.7205 0.40925 20.1952 0.195749C19.6693 -0.0179358 19.0736 -0.000906952 18.5607 0.242624L13.8743 2.46828C13.6427 2.30275 13.3594 2.20497 13.0536 2.20497H10.9465C10.6407 2.20497 10.3572 2.30293 10.1256 2.46846L5.43935 0.242441C4.92647 -0.000906929 4.33083 -0.0179358 3.80495 0.195749C3.27962 0.40925 2.86488 0.83662 2.66749 1.36799L2.07533 2.95992C1.87775 3.49184 1.91273 4.08657 2.17146 4.59157C2.21632 4.67928 2.26795 4.76314 2.32472 4.84261H0.370424C0.165894 4.84261 0 5.00832 0 5.21304V7.87961C0 8.08414 0.165894 8.25003 0.370424 8.25003C0.574954 8.25003 0.740848 8.08414 0.740848 7.87961V5.58328H3.31367C3.35487 5.59774 3.39662 5.61111 3.43892 5.62283L6.54861 6.47885C5.85757 7.53775 5.24801 8.65158 4.72615 9.8057H0.740848V9.36112C0.740848 9.15659 0.574954 8.99088 0.370424 8.99088C0.165894 8.99088 0 9.15659 0 9.36112V10.1761C0 10.3807 0.165894 10.5465 0.370424 10.5465H1.69135V23.6601C1.69135 23.8648 1.85725 24.0305 2.06178 24.0305H21.9383C22.1429 24.0305 22.3087 23.8648 22.3087 23.6601V21.5093C22.3087 21.3048 22.1429 21.1389 21.9383 21.1389C21.7336 21.1389 21.5679 21.3048 21.5679 21.5093V23.2898H14.2222V10.7743C15.2714 12.7616 15.9817 14.9224 16.3085 17.155C16.3301 17.3028 16.4385 17.4231 16.5834 17.4601C16.6138 17.468 16.6445 17.4716 16.6751 17.4716C16.7896 17.4716 16.8998 17.4185 16.9708 17.3242C17.5033 16.6178 17.9984 15.8616 18.4454 15.072C19.1939 15.5818 19.9207 16.1501 20.6103 16.7654C20.7265 16.869 20.8953 16.889 21.0325 16.815C21.1696 16.7412 21.246 16.5894 21.2233 16.4352C20.9276 14.418 20.3762 12.4342 19.5947 10.5465H21.5677V20.0276C21.5677 20.2323 21.7336 20.398 21.9381 20.398C22.1429 20.398 22.3086 20.2323 22.3086 20.0276V10.5465H23.6297C23.8342 10.5465 23.9999 10.3807 23.9999 10.1761V5.21304C24.0001 5.00832 23.8344 4.84261 23.6297 4.84261ZM18.8784 0.911693C19.2089 0.754955 19.5774 0.744334 19.9163 0.88203C20.2547 1.01954 20.511 1.28376 20.6383 1.62636L21.2303 3.21773C21.3577 3.5605 21.3359 3.92855 21.1693 4.25393C21.0028 4.57912 20.717 4.81167 20.3647 4.90853L14.4685 6.53177V4.75161C15.7938 3.94008 19.0978 2.26631 19.9201 3.42702C20.0382 3.59383 20.2693 3.63356 20.4363 3.51528C20.6033 3.39699 20.6428 3.16573 20.5246 2.99892C19.8899 2.10298 18.5525 2.0594 16.5491 2.86965C15.7239 3.20327 14.962 3.61049 14.4685 3.89303V3.61965C14.4685 3.42134 14.4273 3.23238 14.3533 3.06081L18.8784 0.911693ZM10.9465 2.94564H13.0536C13.4253 2.94564 13.7277 3.24813 13.7277 3.61965V6.68136C13.7277 7.05307 13.4253 7.35538 13.0536 7.35538H10.9465C10.5748 7.35538 10.2724 7.05307 10.2724 6.68136V3.61965C10.2724 3.24794 10.5748 2.94564 10.9465 2.94564ZM10.3239 9.80552C10.6782 9.21683 11.0638 8.64627 11.4787 8.09622H12.521C12.9361 8.64627 13.3217 9.21683 13.6758 9.80552H10.3239ZM2.83082 4.25393C2.6642 3.92855 2.64241 3.5605 2.76966 3.21791L3.36201 1.62617C3.48909 1.28376 3.74544 1.01954 4.08382 0.88203C4.42256 0.744334 4.79116 0.754955 5.12148 0.911693L9.64677 3.06117C9.57279 3.23256 9.53159 3.42134 9.53159 3.61983V3.91427C9.03977 3.63118 8.26065 3.21187 7.41434 2.86965C5.41116 2.0594 4.07356 2.10298 3.43892 2.99892C3.32063 3.16573 3.36018 3.39699 3.52718 3.51528C3.69417 3.63356 3.92525 3.59401 4.04335 3.42702C4.87337 2.25533 8.23172 3.97176 9.53159 4.77413V6.53177L3.63557 4.90871C3.28309 4.81167 2.99727 4.57912 2.83082 4.25393ZM9.69785 7.34586C9.88224 7.69083 10.2052 7.95102 10.5921 8.05118C8.85978 10.4682 7.66721 13.2453 7.10782 16.1644C6.71432 15.5895 6.34646 14.9869 6.00973 14.3645C5.96047 14.2733 5.87551 14.207 5.77499 14.1816C5.67464 14.1561 5.56826 14.1739 5.48165 14.2305C4.86477 14.6327 4.2607 15.074 3.67732 15.5479C4.27809 12.3945 5.51937 9.3538 7.29935 6.68558L9.69785 7.34586ZM2.4322 10.5465H4.40535C3.62386 12.4342 3.07252 14.4178 2.77662 16.4352C2.7541 16.5894 2.83027 16.7412 2.96742 16.815C3.10475 16.8888 3.27339 16.869 3.38966 16.7654C4.07924 16.1501 4.80599 15.5818 5.55471 15.072C6.00167 15.8616 6.49661 16.6176 7.02926 17.3242C7.10031 17.4185 7.21054 17.4718 7.32498 17.4718C7.35556 17.4718 7.38632 17.468 7.41672 17.4601C7.56155 17.4231 7.66977 17.3028 7.69138 17.155C8.0184 14.9224 8.72867 12.7614 9.77769 10.7741V23.2898H2.4322V10.5465ZM10.5185 23.2898V10.5465H13.4816V23.2898H10.5185ZM18.5184 14.2305C18.4318 14.1739 18.3253 14.1563 18.2251 14.1818C18.1248 14.2072 18.0396 14.2735 17.9904 14.3645C17.6536 14.9869 17.2858 15.5897 16.8923 16.1644C16.3329 13.2452 15.1403 10.4682 13.4078 8.05136C13.7947 7.95139 14.1179 7.69101 14.3022 7.34586L16.7013 6.68539C18.4809 9.35416 19.7222 12.3948 20.323 15.5479C19.7394 15.074 19.1353 14.6327 18.5184 14.2305ZM23.2593 9.8057H19.2741C18.7523 8.65158 18.1427 7.53775 17.4519 6.47885L20.5612 5.62283C20.6035 5.61111 20.6452 5.59774 20.6864 5.58328H23.2593V9.8057Z" fill="white"/>
</g>
<defs>
<clipPath id="clip0">
<rect width="24" height="24" fill="white"/>
</clipPath>
</defs>
</svg>
