<svg width="14" height="14" viewBox="0 0 14 14" fill="none" xmlns="http://www.w3.org/2000/svg">
<path d="M8.23717 7.00015L13.7425 1.49459C14.0845 1.15283 14.0845 0.598303 13.7425 0.256541C13.4005 -0.0855136 12.8465 -0.0855136 12.5045 0.256541L6.99917 5.7621L1.49355 0.256541C1.15151 -0.0855136 0.597593 -0.0855136 0.255553 0.256541C-0.0864866 0.598303 -0.0864866 1.15283 0.255553 1.49459L5.76117 7.00015L0.255553 12.5057C-0.0864866 12.8475 -0.0864866 13.402 0.255553 13.7438C0.426573 13.9145 0.650709 14 0.874552 14C1.0984 14 1.32253 13.9145 1.49355 13.7435L6.99917 8.2379L12.5045 13.7435C12.6755 13.9145 12.8997 14 13.1235 14C13.3473 14 13.5715 13.9145 13.7425 13.7435C14.0845 13.4017 14.0845 12.8472 13.7425 12.5054L8.23717 7.00015Z" fill="#EDCE9C"/>
</svg>
