<svg width="10" height="25" viewBox="0 0 10 25" fill="none" xmlns="http://www.w3.org/2000/svg">
<path d="M4.77734 0.600586C5.39583 0.600586 5.88444 0.755208 6.24316 1.06445C6.60189 1.36133 6.78125 1.77572 6.78125 2.30762C6.78125 2.85189 6.60189 3.28483 6.24316 3.60645C5.89681 3.91569 5.4082 4.07031 4.77734 4.07031C4.15885 4.07031 3.67643 3.91569 3.33008 3.60645C2.98372 3.2972 2.81055 2.86426 2.81055 2.30762C2.81055 1.77572 2.98372 1.36133 3.33008 1.06445C3.67643 0.755208 4.15885 0.600586 4.77734 0.600586ZM6.72559 22.1055C6.72559 22.4023 6.77507 22.6374 6.87402 22.8105C6.97298 22.9714 7.13379 23.0951 7.35645 23.1816C7.5791 23.2559 7.86361 23.3053 8.20996 23.3301C8.56868 23.3424 9.00163 23.3486 9.50879 23.3486V25C9.18717 25 8.75423 25 8.20996 25C7.66569 24.9876 7.12142 24.9814 6.57715 24.9814C6.03288 24.9814 5.55046 24.9814 5.12988 24.9814C4.70931 24.9691 4.46191 24.9629 4.3877 24.9629C3.68262 24.9629 3.05794 24.9691 2.51367 24.9814C1.98177 24.9938 1.43132 25 0.862305 25V23.3486C1.53027 23.3486 2.0498 23.3301 2.4209 23.293C2.79199 23.2559 3.06413 23.194 3.2373 23.1074C3.42285 23.0208 3.52799 22.9033 3.55273 22.7549C3.58984 22.5941 3.6084 22.39 3.6084 22.1426V10.7129C3.6084 10.5397 3.55892 10.4098 3.45996 10.3232C3.37337 10.2367 3.22493 10.1748 3.01465 10.1377C2.80436 10.0882 2.52604 10.0635 2.17969 10.0635C1.8457 10.0511 1.4375 10.0449 0.955078 10.0449V8.39355C2.00651 8.39355 2.99609 8.38737 3.92383 8.375C4.85156 8.36263 5.78548 8.33789 6.72559 8.30078V22.1055Z" fill="#EDCE9C"/>
</svg>
