<svg width="24" height="24" viewBox="0 0 24 24" fill="none" xmlns="http://www.w3.org/2000/svg">
<path d="M15.5156 5.672H20.7286L15.5156 0.412109V5.672Z" fill="#EDCE9C"/>
<path d="M21.1406 7.07812H14.1094V0H2.85938V24H21.1406V7.07812ZM11.2969 11.2969H12.7031V12.7031H11.2969V11.2969ZM7.78125 8.48438C7.77656 8.48217 5.67188 8.3955 5.67188 6.375C5.67188 5.45995 6.2617 4.68731 7.07812 4.39594V2.85938H8.48438V4.39594C9.3008 4.68727 9.89062 5.46 9.89062 6.375H8.48438C8.48438 5.98706 8.16919 5.67188 7.78125 5.67188C7.39331 5.67188 7.07812 5.98706 7.07812 6.375C7.07812 6.76294 7.39331 7.07812 7.78125 7.07812C7.78594 7.08033 9.89062 7.167 9.89062 9.1875C9.89062 10.1025 9.3008 10.8753 8.48438 11.1666V12.7031H7.07812V11.1666C6.2617 10.8752 5.67188 10.1025 5.67188 9.1875H7.07812C7.07812 9.57544 7.39331 9.89062 7.78125 9.89062C8.16919 9.89062 8.48438 9.57544 8.48438 9.1875C8.48438 8.79956 8.16919 8.48438 7.78125 8.48438ZM18.3281 21.1406H5.67188V19.7344H18.3281V21.1406ZM18.3281 18.3281H5.67188V16.9219H18.3281V18.3281ZM18.3281 15.5156H5.67188V14.1094H18.3281V15.5156ZM18.3281 12.7031H14.1094V11.2969H18.3281V12.7031Z" fill="#EDCE9C"/>
</svg>
