<svg width="71" height="67" viewBox="0 0 71 67" fill="none" xmlns="http://www.w3.org/2000/svg">
<path fill-rule="evenodd" clip-rule="evenodd" d="M0 66.7911V0.796875H21.2831V30.3293L6.76441 45.343V66.7911H0ZM7.25956 3.10614H13.859V33.9584L7.25956 40.5579V3.10614Z" fill="#EE5644"/>
<path fill-rule="evenodd" clip-rule="evenodd" d="M12.0439 56.232C13.2318 59.9277 17.9834 64.9765 18.9733 65.4712C19.9632 65.9659 29.0375 69.761 31.1823 59.8619C33.3271 49.9628 25.2428 44.5183 23.263 43.1984C22.2977 42.5549 20.9402 42.2643 19.8024 42.0208C18.6066 41.7648 17.6534 41.5608 17.6534 41.0536C17.6534 40.0636 24.5828 33.4642 25.2428 33.4642C25.7078 33.4642 27.074 37.0689 28.8219 41.6805L28.8219 41.6807L28.8222 41.6814C29.5546 43.6139 30.3541 45.7231 31.1823 47.818C32.7901 51.8849 35.4281 54.6506 37.4179 56.7366C38.8991 58.2895 40.0211 59.4658 40.0915 60.5219C40.2203 62.4548 39.2421 62.878 37.3925 63.6782C36.8741 63.9025 36.2871 64.1564 35.6369 64.4815C32.6671 65.9664 35.3069 66.9563 36.6268 66.9563C37.9467 66.9563 42.8962 63.8216 44.5461 57.0572C46.1959 50.2928 47.6808 41.3835 46.031 33.9592L41.9422 37.3937C41.8045 36.8609 41.8319 37.0517 41.9063 37.4239L41.9422 37.3937C42.1098 38.042 42.5219 39.7613 43.3912 43.5283C44.9751 50.3917 43.7212 52.3276 42.8962 52.4376C40.9164 52.7675 25.5728 31.9794 29.0375 28.8446L49.8256 10.2013V66.9563H70.9438V36.9289L57.25 23.2351V5.41669H59.3948C59.3398 6.29661 59.2628 8.65036 59.3948 11.026C59.5598 13.9955 61.3746 15.4808 63.0245 15.4808H65.0043V18.1206C65.0043 19.6054 66.8191 22.7402 66.8191 20.1004C66.8191 18.6261 68.1056 17.1519 69.2416 15.85C70.1397 14.8209 70.9438 13.8995 70.9438 13.171C71.7687 2.44696 63.3544 2.77669 57.25 3.27189V1.78691C56.59 1.29195 52.1354 0.467133 49.8256 1.78691V7.39642C48.6157 8.60627 45.734 11.026 43.8862 11.026C43.2262 7.72625 38.7716 -1.84291 32.6671 2.77669C26.5627 7.39628 24.5828 13.1708 24.5828 25.0497V30.6592C21.5031 34.1239 14.9147 41.6473 13.1988 44.0231C11.054 46.9928 10.5591 51.6124 12.0439 56.232ZM28.0054 61.426C30.5839 58.9607 29.5626 53.7078 25.7243 49.6933C21.886 45.6788 16.6842 44.423 14.1057 46.8884C11.5272 49.3537 12.5484 54.6066 16.3867 58.6211C20.225 62.6355 25.4269 63.8914 28.0054 61.426ZM37.452 17.1309L33.622 20.9256L28.0126 26.4562C27.0579 13.006 30.799 4.43933 33.622 4.50499C36.445 4.57065 37.727 5.30641 37.452 17.1309ZM57.2508 64.8116H63.6852V33.7943L57.2508 27.3599V64.8116Z" fill="#EE5644"/>
</svg>
