<svg width="24" height="24" viewBox="0 0 24 24" fill="none" xmlns="http://www.w3.org/2000/svg">
<path d="M21.2664 21.2664L19.6316 22.9012L18.6375 21.9072L20.2723 20.2724L19.3177 19.3177L17.6829 20.9525L16.6889 19.9584L18.3236 18.3236L17.3689 17.3689L15.7341 19.0037L14.7401 18.0097L16.3749 16.3749L15.4202 15.4202L13.7854 17.055L12.7914 16.061L14.4262 14.4262L13.4714 13.4714L11.8366 15.1062L10.8426 14.1121L12.4774 12.4774L11.5227 11.5227L9.88791 13.1575L8.89388 12.1635L10.5286 10.5286L9.57394 9.57394L7.93913 11.2087L6.94509 10.2147L8.57991 8.57991L7.6252 7.6252L5.99044 9.26002L4.99641 8.26598L6.63117 6.63117L5.67647 5.67647L4.04161 7.31119L3.04758 6.31716L4.68239 4.68239L3.72764 3.72764L2.09283 5.3625L1.09884 4.36847L2.73366 2.73366L0 0V24H24L21.2664 21.2664ZM5.15452 18.8455V12.4441L11.5559 18.8455H5.15452Z" fill="#EDCE9C"/>
</svg>
