<svg width="24" height="24" viewBox="0 0 24 24" fill="none" xmlns="http://www.w3.org/2000/svg">
<g clip-path="url(#clip0)">
<path d="M24 12.0137L21.9459 9.338L22.4054 6.01367L19.2703 4.77043L18.027 1.63529L14.7027 2.09475L12 0.0136719L9.32432 2.06773L6 1.60827L4.75676 4.7434L1.62162 5.98664L2.08108 9.31097L0 12.0137L2.05405 14.6893L1.59459 18.0137L4.72973 19.2569L5.97297 22.392L9.2973 21.9326L11.973 23.9866L14.6486 21.9326L17.973 22.392L19.2162 19.2569L22.3514 17.9866L21.8919 14.6623L24 12.0137ZM11.027 15.9056L7.02703 12.6083L7.89189 11.5542L10.8649 13.9866L15.9459 8.12178L16.973 9.01367L11.027 15.9056Z" fill="#EDCE9C"/>
</g>
<defs>
<clipPath id="clip0">
<rect width="24" height="24" fill="white"/>
</clipPath>
</defs>
</svg>
